<?xml version="1.0" encoding="utf-8"?>
<!-- Generator: Adobe Illustrator 23.1.0, SVG Export Plug-In . SVG Version: 6.00 Build 0)  -->
<svg version="1.1" id="Layer_1" xmlns="http://www.w3.org/2000/svg" xmlns:xlink="http://www.w3.org/1999/xlink" x="0px" y="0px"
	 viewBox="0 0 176.87 177.01" style="enable-background:new 0 0 176.87 177.01;" xml:space="preserve">
<style type="text/css">
	.st0{fill:none;stroke:#000000;stroke-width:1.25;stroke-miterlimit:10;}
</style>
<g>
	<path class="st0" d="M-5.89,56.77"/>
</g>
<g>
	<path d="M88.45-0.15c-32.75,0-62.58,17.9-78.08,46.79V10.11H3.49v49.67h49.83v-6.88H14.93C28.49,24.83,57.31,6.73,88.45,6.73
		c45.07,0,81.74,36.69,81.74,81.79c0,45.07-36.67,81.74-81.74,81.74c-44.21,0-80.87-35.89-81.74-80l0-0.25h-6.89l0,0.25
		c0.45,23.26,9.87,45.09,26.54,61.46c16.69,16.39,38.74,25.42,62.08,25.42c48.87,0,88.62-39.75,88.62-88.62
		C177.08,39.62,137.32-0.15,88.45-0.15z"/>
	<g>
		<path d="M75.18,45.9"/>
	</g>
	<polygon points="121.78,121.66 90.4,97 90.4,45.9 75.18,45.9 75.18,104.07 112.37,133.63 	"/>
</g>
</svg>
