<?xml version="1.0" encoding="utf-8"?>
<!-- Generator: Adobe Illustrator 23.1.0, SVG Export Plug-In . SVG Version: 6.00 Build 0)  -->
<svg version="1.1" id="Layer_1" xmlns="http://www.w3.org/2000/svg" xmlns:xlink="http://www.w3.org/1999/xlink" x="0px" y="0px"
	 viewBox="0 0 119.87 147.7" style="enable-background:new 0 0 119.87 147.7;" xml:space="preserve">
<g>
	<path d="M27.02,146.96c-8.84,0-17.48-4.43-22.47-12.47c-7.67-12.37-3.84-28.67,8.52-36.34l9.62-5.96
		c-6.53-1.53-12.21-5.55-15.85-11.43l-0.38-0.6c-3.72-5.99-4.88-13.07-3.26-19.93c1.61-6.86,5.79-12.69,11.78-16.4L78.88,4.18
		c12.36-7.68,28.67-3.85,36.34,8.52c3.72,5.99,4.88,13.07,3.27,19.93c-1.61,6.86-5.79,12.69-11.78,16.4L97.08,55
		c6.53,1.53,12.21,5.56,15.85,11.43l0.38,0.6c3.72,5.99,4.88,13.07,3.26,19.93c-1.61,6.86-5.79,12.69-11.78,16.4L40.89,143
		C36.57,145.68,31.76,146.96,27.02,146.96z M28.98,87.26c1.55,0,2.88,1,3.33,2.5c0.45,1.51-0.18,3.15-1.52,3.98l-14.76,9.16
		c-9.74,6.04-12.76,18.88-6.72,28.62c2.93,4.72,7.52,8.02,12.92,9.29c5.4,1.27,10.98,0.35,15.7-2.57l63.91-39.63
		c4.72-2.93,8.02-7.52,9.29-12.92c1.27-5.41,0.35-10.98-2.57-15.7l-0.38-0.61c-3.73-6.02-10.26-9.7-17.33-9.46
		c-1.77,0.01-2.94-0.99-3.39-2.51c-0.45-1.53,0.16-3.13,1.51-3.98l14.77-9.16c4.72-2.93,8.02-7.52,9.28-12.92
		c1.27-5.41,0.36-10.98-2.57-15.7s-7.52-8.02-12.92-9.29c-5.41-1.27-10.99-0.35-15.7,2.57L17.93,48.57
		c-4.72,2.93-8.02,7.51-9.29,12.92c-1.27,5.41-0.35,10.98,2.57,15.7l0.38,0.6c3.73,6.02,10.31,9.75,17.33,9.46
		C28.94,87.26,28.96,87.26,28.98,87.26z M29,92.86c0,0-0.01,0-0.01,0C29,92.86,29,92.86,29,92.86z"/>
</g>
<g>
	<polygon points="48.64,59.9 48.64,93.98 78.67,76.82 	"/>
</g>
</svg>
