<?xml version="1.0" encoding="utf-8"?>
<!-- Generator: Adobe Illustrator 23.1.0, SVG Export Plug-In . SVG Version: 6.00 Build 0)  -->
<svg version="1.1" id="Layer_1" xmlns="http://www.w3.org/2000/svg" xmlns:xlink="http://www.w3.org/1999/xlink" x="0px" y="0px"
	 viewBox="0 0 276.28 58.89" style="enable-background:new 0 0 276.28 58.89;" xml:space="preserve">
<style type="text/css">
	.st0{fill:#ED1F24;}
	.st1{fill:#FFFFFF;}
</style>
<g>
	<path class="st0" d="M15.56,58.76H58.2c7.37,0,13.34-5.97,13.34-13.34v-21.6c0-7.37-5.97-13.34-13.34-13.34H15.56
		c-7.37,0-13.34,5.97-13.34,13.34v21.6C2.22,52.78,8.2,58.76,15.56,58.76z"/>
</g>
<g>
	<polygon class="st1" points="29.73,24.28 29.85,45.01 47.68,34.83 	"/>
</g>
<g>
	<path d="M95.61,14.02l-3.64,17c-0.49,1.74-1.12,4.58-1.88,8.53c-0.08,0.66-0.11,1.32-0.11,1.97c0,0.39,0,0.98,0,1.77s0,1.46,0,2
		v11.38h-6.44V45.3c0-0.54,0-1.21,0-2s0-1.38,0-1.77c0-0.66-0.04-1.31-0.12-1.97c-0.15-1.32-0.43-2.75-0.81-4.29
		c-0.7-2.55-1.06-3.97-1.1-4.24l-3.83-17h5.69l1.22,6.79c0.58,3.25,1.3,7.86,2.15,13.81c0.81-5.96,1.49-10.56,2.03-13.81l1.16-6.79
		H95.61z"/>
	<path d="M112.97,49.59c0,2.98-0.49,4.94-1.48,5.89c-0.99,0.95-2.95,1.42-5.89,1.42c-2.82,0-4.75-0.51-5.77-1.54
		c-1.03-1.03-1.54-2.95-1.54-5.77V32.42c0-3.13,0.44-5.22,1.33-6.27c1.01-1.2,3-1.8,5.98-1.8c3.02,0,5.03,0.58,6.04,1.74
		c0.89,1.04,1.33,3.15,1.33,6.33V49.59z M108.03,49.25v-17.7c0-1.55-0.8-2.32-2.41-2.32c-1.61,0-2.41,0.77-2.41,2.32v17.7
		c0,1.66,0.76,2.5,2.29,2.5c0.74,0,1.35-0.24,1.82-0.72S108.03,49.94,108.03,49.25z"/>
	<path d="M133.69,56.67h-4.93v-3.42c-0.54,0.93-1.32,1.76-2.32,2.5c-1.12,0.81-2.17,1.22-3.13,1.22c-1.86,0-3.11-1.08-3.77-3.25
		c-0.35-1.24-0.52-3.09-0.52-5.57V24.7h4.93v23.33c0,2.09,0.78,3.13,2.35,3.13c0.78,0,1.41-0.35,1.88-1.04
		c0.39-0.58,0.59-1.28,0.59-2.09V24.7h4.93V56.67z"/>
	<path d="M153.47,19.94h-4.29v36.74h-6.09V19.94h-4.41v-5.92h14.8V19.94z"/>
	<path d="M170.01,56.67h-4.93v-3.42c-0.54,0.93-1.32,1.76-2.32,2.5c-1.12,0.81-2.17,1.22-3.13,1.22c-1.86,0-3.11-1.08-3.77-3.25
		c-0.35-1.24-0.52-3.09-0.52-5.57V24.7h4.93v23.33c0,2.09,0.78,3.13,2.35,3.13c0.78,0,1.41-0.35,1.88-1.04
		c0.39-0.58,0.59-1.28,0.59-2.09V24.7h4.93V56.67z"/>
	<path d="M191.2,32.94v15.03c0,2.55-0.2,4.45-0.58,5.69c-0.66,2.17-1.97,3.25-3.95,3.25c-1.55,0-2.69-0.23-3.42-0.7
		c-0.89-0.5-1.49-1.51-1.8-3.02v3.48h-4.93V14.02h4.93v14.04c0.81-2.48,2.28-3.71,4.41-3.71c2.32,0,3.87,0.93,4.64,2.79
		C190.96,28.26,191.2,30.19,191.2,32.94z M186.26,48.43V33.29c0-2.09-0.81-3.13-2.44-3.13c-0.77,0-1.36,0.32-1.77,0.96
		s-0.61,1.36-0.61,2.18v15.15c0,1.86,0.79,2.79,2.38,2.79C185.45,51.22,186.26,50.29,186.26,48.43z"/>
	<path d="M211.63,49.59c0,2.98-0.49,4.94-1.48,5.89c-0.99,0.95-2.95,1.42-5.89,1.42c-2.82,0-4.75-0.51-5.77-1.54
		c-1.03-1.03-1.54-2.95-1.54-5.77V32.42c0-3.13,0.44-5.22,1.33-6.27c1.01-1.2,3-1.8,5.98-1.8c3.02,0,5.03,0.58,6.04,1.74
		c0.89,1.04,1.33,3.15,1.33,6.33v10.27h-9.75v6.56c0,1.66,0.76,2.5,2.29,2.5c1.68,0,2.53-1.2,2.53-3.6c0-0.12,0-0.29,0-0.52
		s0-0.41,0-0.52h4.93V49.59z M206.69,31.54c0-1.55-0.8-2.32-2.41-2.32c-1.61,0-2.41,0.77-2.41,2.32v5.86h4.82V31.54z"/>
</g>
<g>
	<path d="M220.15,16.95c-1.5,0.77-3.14,1.16-4.92,1.16c-2.37,0-4.19-0.69-5.48-2.08c-1.29-1.38-1.93-3.35-1.93-5.9
		c0-2.54,0.66-4.51,1.97-5.91c1.31-1.4,3.17-2.09,5.56-2.09c1.36,0,2.95,0.22,4.78,0.67v2.03c-2.08-0.72-3.69-1.08-4.82-1.08
		c-1.65,0-2.93,0.56-3.84,1.68c-0.9,1.12-1.36,2.69-1.36,4.73c0,1.95,0.48,3.48,1.45,4.6c0.97,1.12,2.29,1.68,3.97,1.68
		c1.43,0,2.97-0.44,4.62-1.33V16.95z"/>
	<path d="M223.28,17.73V2.51h2.16v13.6h6.85v1.61H223.28z"/>
	<path d="M240.73,18.11c-2.16,0-3.89-0.73-5.18-2.17s-1.94-3.39-1.94-5.81s0.65-4.37,1.94-5.82c1.29-1.45,3.02-2.17,5.18-2.17
		s3.88,0.73,5.18,2.17c1.29,1.45,1.94,3.39,1.94,5.82s-0.65,4.37-1.94,5.81C244.62,17.38,242.89,18.11,240.73,18.11z M240.73,16.49
		c1.51,0,2.7-0.56,3.55-1.69c0.85-1.13,1.27-2.7,1.27-4.7c0-2-0.42-3.55-1.27-4.67c-0.85-1.12-2.03-1.68-3.55-1.68
		c-1.52,0-2.7,0.56-3.55,1.68c-0.85,1.12-1.28,2.68-1.28,4.67c0,2.01,0.42,3.58,1.28,4.7C238.04,15.93,239.22,16.49,240.73,16.49z"
		/>
	<path d="M250.87,17.73V2.51h2.12l7.66,11.75V2.51h1.85v15.22h-2.11l-7.67-11.75v11.75H250.87z"/>
	<path d="M266.43,17.73V2.51h8.5v1.61h-6.34v4.88h5.32v1.59h-5.32v5.51h6.79v1.61H266.43z"/>
</g>
</svg>
